<svg width="50" height="50" viewBox="0 0 24 24" fill="none" xmlns="http://www.w3.org/2000/svg">
<g clip-path="url(#clip0_51_17529)">
<path d="M10 6C9.99398 5.73367 10.0412 5.46881 10.139 5.22098C10.2367 4.97315 10.383 4.74735 10.5692 4.55683C10.7554 4.36631 10.9778 4.21492 11.2234 4.11153C11.4689 4.00815 11.7326 3.95485 11.999 3.95479C12.2654 3.95472 12.5291 4.00788 12.7747 4.11114C13.0203 4.2144 13.2428 4.36569 13.4291 4.55612C13.6154 4.74654 13.7618 4.97227 13.8596 5.22005C13.9575 5.46783 14.0049 5.73266 13.999 5.999C13.9875 6.52157 13.7718 7.01884 13.3982 7.38437C13.0246 7.74991 12.5227 7.95466 12 7.95479C11.4773 7.95492 10.9753 7.75042 10.6015 7.38507C10.2277 7.01972 10.0118 6.52256 10 6ZM16.359 12C16.359 11.5648 16.5319 11.1474 16.8396 10.8396C17.1474 10.5319 17.5648 10.359 18 10.359C18.4352 10.359 18.8526 10.5319 19.1604 10.8396C19.4681 11.1474 19.641 11.5648 19.641 12C19.641 12.4352 19.4681 12.8526 19.1604 13.1604C18.8526 13.4681 18.4352 13.641 18 13.641C17.5648 13.641 17.1474 13.4681 16.8396 13.1604C16.5319 12.8526 16.359 12.4352 16.359 12ZM14.757 16.243C14.7519 16.0447 14.7865 15.8473 14.8588 15.6626C14.9312 15.4779 15.0398 15.3095 15.1782 15.1674C15.3167 15.0253 15.4822 14.9124 15.6649 14.8353C15.8477 14.7582 16.0441 14.7185 16.2425 14.7185C16.4409 14.7185 16.6373 14.7582 16.8201 14.8353C17.0029 14.9124 17.1684 15.0253 17.3068 15.1674C17.4453 15.3095 17.5539 15.4779 17.6262 15.6626C17.6985 15.8473 17.7332 16.0447 17.728 16.243C17.718 16.6303 17.557 16.9984 17.2796 17.2688C17.0021 17.5391 16.6299 17.6905 16.2425 17.6905C15.8551 17.6905 15.483 17.5391 15.2055 17.2688C14.928 16.9984 14.7671 16.6303 14.757 16.243ZM10.654 18C10.6541 17.8232 10.689 17.6481 10.7567 17.4848C10.8244 17.3214 10.9237 17.173 11.0487 17.048C11.1738 16.923 11.3223 16.8239 11.4857 16.7563C11.6491 16.6887 11.8242 16.6539 12.001 16.654C12.1778 16.6541 12.3529 16.689 12.5163 16.7567C12.6796 16.8244 12.828 16.9237 12.953 17.0487C13.078 17.1738 13.1771 17.3223 13.2447 17.4857C13.3123 17.6491 13.3471 17.8242 13.347 18.001C13.3469 18.3581 13.2049 18.7006 12.9523 18.953C12.6997 19.2054 12.3571 19.3471 12 19.347C11.6429 19.3469 11.3005 19.2049 11.048 18.9523C10.7956 18.6997 10.6539 18.3571 10.654 18ZM6.53801 16.243C6.53334 16.0799 6.56143 15.9176 6.62061 15.7655C6.6798 15.6135 6.76887 15.4749 6.88258 15.3578C6.99628 15.2408 7.1323 15.1478 7.28258 15.0843C7.43286 15.0208 7.59436 14.9881 7.75751 14.9881C7.92066 14.9881 8.08216 15.0208 8.23244 15.0843C8.38272 15.1478 8.51874 15.2408 8.63244 15.3578C8.74614 15.4749 8.83522 15.6135 8.89441 15.7655C8.95359 15.9176 8.98168 16.0799 8.97701 16.243C8.96792 16.5604 8.83545 16.8617 8.60774 17.083C8.38003 17.3043 8.07502 17.4281 7.75751 17.4281C7.43999 17.4281 7.13498 17.3043 6.90727 17.083C6.67957 16.8617 6.5471 16.5604 6.53801 16.243ZM4.89601 12C4.89156 11.8523 4.91681 11.7052 4.97027 11.5674C5.02372 11.4297 5.10429 11.304 5.2072 11.198C5.31011 11.0919 5.43327 11.0076 5.56936 10.95C5.70546 10.8924 5.85173 10.8628 5.99951 10.8628C6.14728 10.8628 6.29356 10.8924 6.42965 10.95C6.56575 11.0076 6.6889 11.0919 6.79181 11.198C6.89472 11.304 6.97529 11.4297 7.02875 11.5674C7.0822 11.7052 7.10745 11.8523 7.10301 12C7.09437 12.2869 6.97432 12.5592 6.76832 12.7591C6.56231 12.959 6.28655 13.0708 5.99951 13.0708C5.71246 13.0708 5.4367 12.959 5.2307 12.7591C5.02469 12.5592 4.90465 12.2869 4.89601 12ZM6.75701 7.757C6.75701 7.49179 6.86236 7.23743 7.0499 7.0499C7.23744 6.86236 7.49179 6.757 7.75701 6.757C8.02222 6.757 8.27658 6.86236 8.46411 7.0499C8.65165 7.23743 8.75701 7.49179 8.75701 7.757C8.75701 8.02222 8.65165 8.27657 8.46411 8.46411C8.27658 8.65165 8.02222 8.757 7.75701 8.757C7.49179 8.757 7.23744 8.65165 7.0499 8.46411C6.86236 8.27657 6.75701 8.02222 6.75701 7.757ZM18.054 7.757C18.054 8.23744 17.8632 8.69821 17.5234 9.03793C17.1837 9.37765 16.7229 9.5685 16.2425 9.5685C15.7621 9.5685 15.3013 9.37765 14.9616 9.03793C14.6219 8.69821 14.431 8.23744 14.431 7.757C14.431 7.27656 14.6219 6.8158 14.9616 6.47608C15.3013 6.13636 15.7621 5.9455 16.2425 5.9455C16.7229 5.9455 17.1837 6.13636 17.5234 6.47608C17.8632 6.8158 18.054 7.27656 18.054 7.757Z" fill="#707D7E"/>
</g>
<defs>
<clipPath id="clip0_51_17529">
<rect width="16" height="16" fill="white" transform="translate(4 4)"/>
</clipPath>
</defs>
</svg>
